<svg width="512" height="512" viewBox="0 0 512 512" fill="none" xmlns="http://www.w3.org/2000/svg">
<rect width="512" height="512" fill="#232F3E"/>
<path d="M39.541 206.305C33.1572 206.305 28.3049 204.617 24.9838 201.24C21.6605 197.864 20 192.926 20 186.432C20 180.05 21.7366 175.096 25.2052 171.57C28.6762 168.044 33.5078 166.279 39.707 166.279C42.6752 166.279 45.4588 166.669 48.058 167.449C48.6507 167.636 49.0497 167.887 49.2549 168.201C49.4579 168.517 49.5617 169.028 49.5617 169.732V174.409C49.5617 175.41 49.1719 175.91 48.3901 175.91C48.2056 175.91 47.742 175.818 46.9994 175.634C45.1821 175.223 43.3624 175.02 41.5451 175.02C38.1295 175.02 35.5511 175.92 33.8053 177.721C32.0618 179.52 31.19 182.183 31.19 185.707V186.932C31.19 190.385 32.0341 193.021 33.7223 194.838C35.4104 196.655 37.9058 197.566 41.2107 197.566C43.51 197.566 45.6641 197.324 47.6682 196.842C48.2609 196.695 48.6876 196.618 48.9482 196.618C49.7277 196.618 50.1175 197.119 50.1175 198.122V202.799C50.1175 203.505 50.0137 204.015 49.8107 204.328C49.6078 204.644 49.2065 204.896 48.6138 205.08C46.0907 205.897 43.0649 206.305 39.541 206.305ZM72.4398 198.011C75.258 198.011 77.3844 197.029 78.812 195.062C80.2419 193.094 80.9568 190.2 80.9568 186.376C80.9568 182.479 80.2327 179.538 78.7843 177.552C77.3383 175.567 75.2235 174.575 72.4398 174.575C69.6561 174.575 67.5482 175.56 66.1206 177.525C64.6908 179.492 63.9781 182.386 63.9781 186.21C63.9781 190.071 64.6908 193.002 66.1206 195.004C67.5482 197.008 69.6561 198.011 72.4398 198.011ZM72.4398 206.528C68.3923 206.528 64.9052 205.684 61.974 203.996C59.0427 202.306 56.8149 199.942 55.2927 196.897C53.7706 193.855 53.0118 190.292 53.0118 186.21C53.0118 182.015 53.8075 178.408 55.4034 175.382C56.9994 172.359 59.2549 170.048 62.1677 168.452C65.0805 166.856 68.5053 166.058 72.4398 166.058C76.4827 166.058 79.972 166.893 82.9056 168.563C85.8346 170.232 88.0716 172.589 89.6122 175.634C91.1505 178.676 91.9231 182.257 91.9231 186.376C91.9231 190.571 91.1228 194.188 89.5292 197.232C87.9333 200.276 85.6685 202.585 82.7373 204.162C79.806 205.74 76.372 206.528 72.4398 206.528ZM100.717 205.581C100.124 205.581 99.6975 205.451 99.4369 205.193C99.1763 204.932 99.0471 204.506 99.0471 203.911V168.673C99.0471 168.044 99.1763 167.608 99.4369 167.366C99.6975 167.126 100.124 167.004 100.717 167.004H109.068C109.587 167.004 109.986 167.089 110.265 167.255C110.544 167.421 110.811 167.783 111.072 168.341L119.813 187.935L128.662 168.341C128.922 167.783 129.192 167.421 129.469 167.255C129.748 167.089 130.147 167.004 130.666 167.004H138.627C139.257 167.004 139.693 167.126 139.935 167.366C140.175 167.608 140.297 168.044 140.297 168.673V203.911C140.297 204.506 140.175 204.932 139.935 205.193C139.693 205.451 139.257 205.581 138.627 205.581H132.725C132.133 205.581 131.704 205.451 131.446 205.193C131.185 204.932 131.056 204.506 131.056 203.911V181.757L124.988 195.451C124.73 196.007 124.46 196.369 124.181 196.535C123.904 196.704 123.505 196.787 122.984 196.787H116.36C115.839 196.787 115.44 196.704 115.163 196.535C114.884 196.369 114.614 196.007 114.356 195.451L108.288 181.757V203.911C108.288 204.506 108.166 204.932 107.926 205.193C107.684 205.451 107.248 205.581 106.619 205.581H100.717ZM150.205 205.581C149.612 205.581 149.185 205.451 148.925 205.193C148.666 204.932 148.535 204.506 148.535 203.911V168.673C148.535 168.044 148.666 167.608 148.925 167.366C149.185 167.126 149.612 167.004 150.205 167.004H158.556C159.075 167.004 159.474 167.089 159.753 167.255C160.032 167.421 160.299 167.783 160.56 168.341L169.301 187.935L178.15 168.341C178.41 167.783 178.68 167.421 178.957 167.255C179.236 167.089 179.635 167.004 180.154 167.004H188.115C188.745 167.004 189.183 167.126 189.423 167.366C189.665 167.608 189.785 168.044 189.785 168.673V203.911C189.785 204.506 189.665 204.932 189.423 205.193C189.183 205.451 188.745 205.581 188.115 205.581H182.216C181.621 205.581 181.194 205.451 180.933 205.193C180.673 204.932 180.544 204.506 180.544 203.911V181.757L174.476 195.451C174.217 196.007 173.948 196.369 173.669 196.535C173.392 196.704 172.993 196.787 172.474 196.787H165.848C165.327 196.787 164.93 196.704 164.651 196.535C164.372 196.369 164.102 196.007 163.844 195.451L157.776 181.757V203.911C157.776 204.506 157.656 204.932 157.414 205.193C157.172 205.451 156.736 205.581 156.106 205.581H150.205ZM214.667 206.528C209.323 206.528 205.177 205.218 202.227 202.603C199.277 199.988 197.801 196.266 197.801 191.441V168.673C197.801 168.044 197.93 167.608 198.191 167.366C198.449 167.126 198.876 167.004 199.471 167.004H206.874C207.506 167.004 207.94 167.126 208.184 167.366C208.424 167.608 208.544 168.044 208.544 168.673V191.778C208.544 193.819 209.065 195.366 210.103 196.425C211.141 197.483 212.663 198.011 214.667 198.011C218.788 198.011 220.848 195.933 220.848 191.778V168.673C220.848 168.044 220.977 167.608 221.238 167.366C221.496 167.126 221.923 167.004 222.518 167.004H229.921C230.55 167.004 230.988 167.126 231.231 167.366C231.47 167.608 231.59 168.044 231.59 168.673V191.498C231.59 196.284 230.105 199.988 227.137 202.603C224.169 205.218 220.013 206.528 214.667 206.528ZM241.277 205.581C240.682 205.581 240.255 205.451 239.997 205.193C239.736 204.932 239.607 204.506 239.607 203.911V168.673C239.607 168.044 239.736 167.608 239.997 167.366C240.255 167.126 240.682 167.004 241.277 167.004H249.127C249.757 167.004 250.23 167.098 250.546 167.283C250.859 167.469 251.147 167.783 251.408 168.228L264.268 191.385V168.673C264.268 168.044 264.397 167.608 264.658 167.366C264.916 167.126 265.345 167.004 265.938 167.004H271.839C272.469 167.004 272.905 167.126 273.147 167.366C273.387 167.608 273.509 168.044 273.509 168.673V203.911C273.509 204.506 273.387 204.932 273.147 205.193C272.905 205.451 272.469 205.581 271.839 205.581H263.989C263.357 205.581 262.884 205.491 262.57 205.304C262.254 205.119 261.966 204.803 261.708 204.358L248.848 181.422V203.911C248.848 204.506 248.726 204.932 248.486 205.193C248.244 205.451 247.808 205.581 247.178 205.581H241.277ZM283.638 205.581C283.045 205.581 282.619 205.451 282.358 205.193C282.1 204.932 281.971 204.506 281.971 203.911V168.673C281.971 168.044 282.1 167.608 282.358 167.366C282.619 167.126 283.045 167.004 283.638 167.004H291.043C291.673 167.004 292.109 167.126 292.351 167.366C292.591 167.608 292.713 168.044 292.713 168.673V203.911C292.713 204.506 292.591 204.932 292.351 205.193C292.109 205.451 291.673 205.581 291.043 205.581H283.638ZM310.416 205.581C309.821 205.581 309.394 205.451 309.134 205.193C308.876 204.932 308.746 204.506 308.746 203.911V175.41H299.226C298.633 175.41 298.204 175.281 297.946 175.02C297.686 174.762 297.556 174.333 297.556 173.74V168.673C297.556 168.044 297.686 167.608 297.946 167.366C298.204 167.126 298.633 167.004 299.226 167.004H329.009C329.639 167.004 330.075 167.126 330.317 167.366C330.557 167.608 330.679 168.044 330.679 168.673V173.74C330.679 174.333 330.557 174.762 330.317 175.02C330.075 175.281 329.639 175.41 329.009 175.41H319.489V203.911C319.489 204.506 319.369 204.932 319.127 205.193C318.887 205.451 318.449 205.581 317.819 205.581H310.416ZM348.158 205.581C347.563 205.581 347.136 205.451 346.876 205.193C346.618 204.932 346.486 204.506 346.486 203.911V191.053L334.853 169.787C334.408 169.008 334.184 168.452 334.184 168.118C334.184 167.375 334.666 167.004 335.63 167.004H343.536C344.129 167.004 344.602 167.117 344.955 167.338C345.308 167.562 345.596 167.933 345.82 168.452L352.164 183.371L358.622 168.452C358.845 167.933 359.131 167.562 359.484 167.338C359.837 167.117 360.31 167.004 360.905 167.004H368.253C369.217 167.004 369.701 167.375 369.701 168.118C369.701 168.452 369.477 169.008 369.032 169.787L357.231 191.164V203.911C357.231 204.506 357.109 204.932 356.869 205.193C356.627 205.451 356.191 205.581 355.561 205.581H348.158ZM395.805 197.343H399.482C405.084 197.343 407.886 193.816 407.886 186.766V185.765C407.886 178.749 405.12 175.242 399.592 175.242H395.805V197.343ZM386.733 205.581C386.138 205.581 385.711 205.451 385.453 205.193C385.192 204.932 385.063 204.506 385.063 203.911V168.673C385.063 168.044 385.192 167.608 385.453 167.366C385.711 167.126 386.138 167.004 386.733 167.004H400.148C406.084 167.004 410.688 168.673 413.953 172.015C417.219 175.355 418.852 180.106 418.852 186.266C418.852 190.311 418.13 193.789 416.682 196.701C415.233 199.617 413.165 201.824 410.476 203.327C407.784 204.831 404.565 205.581 400.817 205.581H386.733ZM443.568 190.551L439.56 176.245L435.665 190.551H443.568ZM422.136 205.581C421.172 205.581 420.69 205.212 420.69 204.469C420.69 204.171 420.838 203.616 421.135 202.797L433.437 168.341C433.621 167.82 433.845 167.469 434.106 167.283C434.364 167.098 434.793 167.004 435.386 167.004H444.292C444.885 167.004 445.312 167.098 445.572 167.283C445.833 167.469 446.054 167.82 446.241 168.341L458.6 202.797C458.896 203.616 459.045 204.171 459.045 204.469C459.045 205.212 458.561 205.581 457.597 205.581H449.246C448.653 205.581 448.218 205.47 447.939 205.248C447.659 205.025 447.429 204.58 447.242 203.911L445.572 198.122H433.66L432.046 203.911C431.859 204.58 431.629 205.025 431.35 205.248C431.073 205.47 430.635 205.581 430.042 205.581H422.136ZM470.402 205.581C469.807 205.581 469.38 205.451 469.119 205.193C468.861 204.932 468.729 204.506 468.729 203.911V191.053L457.097 169.787C456.652 169.008 456.428 168.452 456.428 168.118C456.428 167.375 456.91 167.004 457.874 167.004H465.78C466.372 167.004 466.845 167.117 467.198 167.338C467.551 167.562 467.839 167.933 468.063 168.452L474.408 183.371L480.865 168.452C481.089 167.933 481.375 167.562 481.728 167.338C482.08 167.117 482.553 167.004 483.148 167.004H490.496C491.46 167.004 491.944 167.375 491.944 168.118C491.944 168.452 491.721 169.008 491.276 169.787L479.474 191.164V203.911C479.474 204.506 479.352 204.932 479.112 205.193C478.87 205.451 478.434 205.581 477.805 205.581H470.402ZM287.178 128.475C285.755 128.475 284.362 128.318 283.004 128.002C281.643 127.686 280.598 127.322 279.872 126.911C279.429 126.658 279.152 126.406 279.042 126.153C278.931 125.899 278.876 125.645 278.876 125.392V124.017C278.876 123.447 279.081 123.164 279.494 123.164C279.651 123.164 279.817 123.194 279.992 123.258C280.165 123.323 280.395 123.415 280.679 123.542C281.597 123.952 282.591 124.271 283.668 124.49C284.743 124.714 285.818 124.824 286.895 124.824C288.601 124.824 289.92 124.522 290.854 123.922C291.788 123.323 292.254 122.467 292.254 121.36C292.254 120.601 292.01 119.97 291.519 119.462C291.027 118.957 290.119 118.482 288.79 118.039L284.853 116.805C282.861 116.173 281.415 115.258 280.513 114.054C279.611 112.852 279.162 111.54 279.162 110.117C279.162 108.978 279.406 107.975 279.897 107.105C280.386 106.236 281.034 105.491 281.842 104.875C282.646 104.259 283.59 103.791 284.664 103.475C285.739 103.159 286.876 103 288.08 103C288.68 103 289.288 103.042 289.907 103.12C290.522 103.198 291.108 103.302 291.662 103.429C292.213 103.556 292.727 103.696 293.202 103.856C293.677 104.015 294.055 104.172 294.341 104.328C294.72 104.55 294.99 104.774 295.149 104.993C295.305 105.214 295.384 105.516 295.384 105.894V107.174C295.384 107.744 295.179 108.03 294.768 108.03C294.547 108.03 294.198 107.919 293.726 107.698C292.176 107.001 290.435 106.653 288.507 106.653C286.957 106.653 285.755 106.907 284.902 107.412C284.046 107.919 283.62 108.726 283.62 109.831C283.62 110.592 283.889 111.231 284.427 111.752C284.964 112.276 285.96 112.774 287.416 113.249L291.258 114.481C293.218 115.115 294.618 115.984 295.455 117.091C296.293 118.198 296.712 119.462 296.712 120.885C296.712 122.057 296.477 123.108 296.002 124.04C295.527 124.974 294.87 125.772 294.032 126.436C293.195 127.101 292.19 127.608 291.02 127.954C289.851 128.302 288.569 128.475 287.178 128.475ZM252.358 127.765C251.883 127.765 251.535 127.677 251.314 127.504C251.092 127.329 250.903 126.974 250.746 126.436L244.388 105.468C244.229 104.93 244.15 104.566 244.15 104.377C244.15 103.934 244.372 103.713 244.814 103.713H247.471C247.976 103.713 248.332 103.8 248.539 103.973C248.744 104.149 248.927 104.504 249.083 105.041L253.638 122.972L257.861 105.041C257.988 104.504 258.161 104.149 258.382 103.973C258.604 103.8 258.968 103.713 259.473 103.713H261.655C262.162 103.713 262.524 103.8 262.746 103.973C262.967 104.149 263.142 104.504 263.269 105.041L267.538 123.21L272.234 105.041C272.393 104.504 272.575 104.149 272.78 103.973C272.985 103.8 273.341 103.713 273.848 103.713H276.362C276.805 103.713 277.026 103.934 277.026 104.377C277.026 104.504 277.01 104.647 276.98 104.804C276.948 104.963 276.883 105.184 276.788 105.468L270.241 126.436C270.084 126.974 269.895 127.329 269.674 127.504C269.452 127.677 269.104 127.765 268.629 127.765H266.304C265.799 127.765 265.435 127.67 265.213 127.481C264.992 127.29 264.819 126.928 264.692 126.388L260.469 108.932L256.295 126.388C256.168 126.928 255.995 127.29 255.774 127.481C255.552 127.67 255.188 127.765 254.683 127.765H252.358ZM230.583 124.824C231.468 124.824 232.402 124.658 233.382 124.324C234.362 123.994 235.216 123.415 235.945 122.594C236.387 122.089 236.694 121.51 236.869 120.862C237.042 120.214 237.13 119.432 237.13 118.514V117.375C236.339 117.186 235.509 117.036 234.639 116.925C233.77 116.815 232.923 116.759 232.102 116.759C230.299 116.759 228.954 117.124 228.069 117.85C227.183 118.577 226.74 119.621 226.74 120.98C226.74 122.246 227.072 123.203 227.737 123.851C228.401 124.499 229.349 124.824 230.583 124.824ZM241.588 120.696C241.588 121.708 241.692 122.516 241.897 123.115C242.102 123.717 242.395 124.365 242.776 125.059C242.9 125.281 242.965 125.488 242.965 125.678C242.965 125.961 242.79 126.231 242.444 126.482L240.735 127.622C240.481 127.781 240.243 127.859 240.024 127.859C239.738 127.859 239.471 127.732 239.217 127.481C238.837 127.101 238.514 126.681 238.244 126.222C237.976 125.765 237.7 125.235 237.414 124.633C235.294 127.133 232.637 128.38 229.446 128.38C227.167 128.38 225.366 127.732 224.037 126.436C222.709 125.14 222.045 123.401 222.045 121.217C222.045 118.909 222.866 117.052 224.51 115.643C226.154 114.236 228.369 113.533 231.152 113.533C232.07 113.533 233.025 113.604 234.023 113.745C235.017 113.888 236.053 114.086 237.13 114.34V112.347C237.13 110.29 236.703 108.844 235.85 108.007C234.994 107.167 233.523 106.75 231.438 106.75C230.488 106.75 229.515 106.868 228.518 107.105C227.524 107.343 226.551 107.649 225.601 108.03C225.158 108.219 224.842 108.337 224.653 108.385C224.464 108.434 224.321 108.457 224.226 108.457C223.846 108.457 223.657 108.173 223.657 107.603V106.275C223.657 105.832 223.719 105.516 223.846 105.325C223.973 105.136 224.226 104.946 224.605 104.757C225.555 104.282 226.694 103.872 228.023 103.524C229.349 103.175 230.758 103 232.243 103C235.469 103 237.833 103.736 239.335 105.207C240.838 106.679 241.588 108.899 241.588 111.872V120.696Z" fill="white"/>
<path fill-rule="evenodd" clip-rule="evenodd" d="M292.199 141.827C283.273 148.414 270.335 151.917 259.191 151.917C243.576 151.917 229.512 146.144 218.871 136.534C218.036 135.78 218.781 134.749 219.787 135.335C231.267 142.016 245.464 146.038 260.13 146.038C270.022 146.038 280.896 143.986 290.902 139.742C292.411 139.101 293.675 140.736 292.199 141.827Z" fill="#FF9900"/>
<path fill-rule="evenodd" clip-rule="evenodd" d="M295.914 137.585C294.77 136.125 288.368 136.893 285.49 137.236C284.618 137.343 284.484 136.581 285.268 136.028C290.379 132.439 298.748 133.477 299.722 134.679C300.702 135.89 299.466 144.282 294.676 148.288C293.94 148.904 293.241 148.576 293.566 147.762C294.643 145.071 297.056 139.047 295.914 137.585Z" fill="#FF9900"/>
<path d="M213.505 219.481H218.722C220.081 219.481 221.166 219.805 221.978 220.452C222.791 221.087 223.197 221.938 223.197 223.004C223.197 223.601 223.051 224.127 222.759 224.584C222.467 225.041 222.042 225.403 221.483 225.67C222.258 225.949 222.842 226.368 223.235 226.926C223.641 227.472 223.844 228.132 223.844 228.906C223.844 229.681 223.635 230.354 223.216 230.925C222.81 231.496 222.232 231.934 221.483 232.239C220.747 232.531 219.89 232.677 218.913 232.677H213.505V219.481ZM216.933 227.155V230.163H218.703C219.237 230.163 219.63 230.049 219.884 229.82C220.138 229.579 220.265 229.205 220.265 228.697C220.265 227.669 219.687 227.155 218.532 227.155H216.933ZM216.933 221.995V224.775H218.227C219.179 224.775 219.655 224.324 219.655 223.423C219.655 222.953 219.541 222.598 219.313 222.357C219.097 222.115 218.773 221.995 218.342 221.995H216.933Z" fill="#FF9900"/>
<path d="M233.319 233C231.935 233 230.742 232.715 229.739 232.143C228.737 231.559 227.975 230.747 227.454 229.706C226.934 228.665 226.674 227.447 226.674 226.05C226.674 224.616 226.947 223.385 227.493 222.357C228.038 221.316 228.806 220.522 229.796 219.976C230.799 219.431 231.973 219.158 233.319 219.158C234.703 219.158 235.896 219.443 236.899 220.015C237.901 220.586 238.663 221.392 239.183 222.433C239.717 223.474 239.983 224.699 239.983 226.108C239.983 227.542 239.71 228.78 239.164 229.82C238.619 230.861 237.844 231.655 236.841 232.2C235.839 232.734 234.664 233 233.319 233ZM233.319 230.087C234.284 230.087 235.007 229.751 235.49 229.078C235.985 228.405 236.232 227.415 236.232 226.108C236.232 224.775 235.985 223.772 235.49 223.099C234.995 222.414 234.271 222.071 233.319 222.071C232.367 222.071 231.643 222.407 231.148 223.08C230.666 223.753 230.425 224.743 230.425 226.05C230.425 227.371 230.666 228.373 231.148 229.059C231.643 229.744 232.367 230.087 233.319 230.087Z" fill="#FF9900"/>
<path d="M243.746 232.677V219.481H247.421V229.706H252.924V232.677H243.746Z" fill="#FF9900"/>
<path d="M255.828 232.677V219.481H259.503V232.677H255.828Z" fill="#FF9900"/>
<path d="M267.036 232.677L262.352 219.481H266.427L269.055 229.211L271.682 219.481H275.662L270.978 232.677H267.036Z" fill="#FF9900"/>
<path d="M278.52 232.677V219.481H282.195V232.677H278.52Z" fill="#FF9900"/>
<path d="M294.374 232.677L293.65 230.125H289.614L288.928 232.677H285.044L289.69 219.481H293.745L298.391 232.677H294.374ZM290.299 227.536H292.965L291.613 222.642L290.299 227.536Z" fill="#FF9900"/>
<path d="M310.922 225.593H453.947V226.921H310.922V225.593Z" fill="white"/>
<path d="M58.0803 225.592H201.106V226.921H58.0803V225.592Z" fill="white"/>
<rect y="273" width="512" height="79.6667" fill="#D52B1E"/>
<rect y="352.667" width="512" height="79.6667" fill="#F9E303"/>
<rect y="432.333" width="512" height="79.6667" fill="#007934"/>
</svg>
