<svg width="512" height="512" viewBox="0 0 512 512" fill="none" xmlns="http://www.w3.org/2000/svg">
<path d="M473.104 371.85C473.28 371.24 473.44 370.623 473.583 370.002C473.629 369.801 473.672 369.599 473.714 369.398C473.827 368.858 473.927 368.313 474.014 367.766C474.051 367.529 474.09 367.292 474.124 367.055C474.199 366.509 474.255 365.96 474.304 365.411C474.325 365.186 474.351 364.963 474.367 364.737C474.419 363.97 474.451 363.2 474.451 362.424V362.418L474.445 321.514V321.512L474.44 295.309V295.307V291.094L474.436 265.52L474.428 216.696L474.423 190.493L474.417 149.508C474.417 146.513 474.009 143.577 473.257 140.758C472.852 139.241 472.342 137.761 471.736 136.323C469.259 130.447 465.162 125.307 459.811 121.583C459.027 121.038 458.227 120.512 457.392 120.03L434.518 106.828L413.104 94.47L395.865 84.521L329.937 46.475L304.22 31.631L284.932 20.499L272.979 13.6C262.446 7.52197 249.47 7.52397 238.939 13.607L227.067 20.464L207.779 31.604L182.062 46.457L116.147 84.529L87.257 101.215L65.849 113.58L54.567 120.096C53.756 120.565 52.977 121.076 52.214 121.603C48.942 123.871 46.141 126.67 43.881 129.839C42.364 131.966 41.1 134.261 40.108 136.68C38.453 140.712 37.55 145.079 37.551 149.579L37.557 190.492L37.562 216.695L37.574 290.433V294.444V295.294V295.295V295.308V295.313L37.579 321.511V321.513V323.376L37.581 335.993L37.585 362.489V362.496C37.585 363.269 37.618 364.035 37.669 364.801C37.685 365.025 37.711 365.246 37.73 365.469C37.778 366.019 37.835 366.565 37.91 367.107C37.943 367.343 37.982 367.578 38.018 367.815C38.105 368.359 38.204 368.901 38.316 369.44C38.358 369.641 38.402 369.843 38.447 370.043C38.587 370.658 38.745 371.265 38.918 371.868C38.951 371.981 38.979 372.096 39.013 372.208C39.922 375.251 41.253 378.138 42.953 380.796L42.954 380.798L42.955 380.8C44.127 382.632 45.472 384.351 46.98 385.937C47.031 385.99 47.079 386.043 47.128 386.096C47.837 386.83 48.582 387.534 49.359 388.208C49.484 388.318 49.613 388.423 49.741 388.53C50.527 389.191 51.336 389.828 52.186 390.42C52.97 390.965 53.77 391.49 54.605 391.973L77.157 404.989L98.571 417.348L116.132 427.482L207.776 480.372L227.064 491.504L239.017 498.403C249.55 504.481 262.526 504.479 273.057 498.396L284.929 491.539L304.217 480.399L329.934 465.546L385.488 433.46L395.851 427.475L422.211 412.25L443.619 399.885L457.432 391.908C458.243 391.439 459.022 390.928 459.785 390.401C460.636 389.813 461.444 389.175 462.231 388.517C462.359 388.411 462.489 388.305 462.616 388.194C463.396 387.523 464.142 386.82 464.853 386.086C464.9 386.038 464.943 385.988 464.989 385.941C468.713 382.048 471.465 377.331 473.009 372.174C473.045 372.067 473.073 371.958 473.104 371.85Z" fill="#FFE000"/>
<path d="M37.581 335.992L37.585 362.488V362.495C37.585 363.268 37.618 364.034 37.669 364.8C37.685 365.024 37.711 365.245 37.73 365.468C37.778 366.018 37.835 366.564 37.91 367.107C37.943 367.342 37.982 367.577 38.018 367.813C38.105 368.357 38.204 368.898 38.316 369.438C38.358 369.639 38.402 369.841 38.447 370.041C38.587 370.656 38.745 371.263 38.918 371.866C38.951 371.979 38.979 372.094 39.013 372.206C39.922 375.249 41.253 378.136 42.953 380.794L42.954 380.796L42.955 380.798C44.127 382.63 45.472 384.349 46.98 385.935C47.031 385.988 47.079 386.041 47.128 386.094C47.837 386.828 48.582 387.532 49.359 388.206C49.484 388.316 49.613 388.421 49.741 388.528C50.527 389.189 51.336 389.826 52.186 390.418C52.97 390.963 53.77 391.489 54.605 391.971L77.157 404.987L98.571 417.346L116.132 427.48L207.776 480.37L227.064 491.502L239.017 498.401C249.55 504.479 262.526 504.477 273.057 498.394L284.929 491.537L304.217 480.397L329.934 465.544L385.488 433.458L395.851 427.473L422.211 412.248L443.619 399.883L457.432 391.906C458.243 391.437 459.022 390.926 459.785 390.399C460.636 389.811 461.444 389.173 462.231 388.515C462.359 388.409 462.489 388.303 462.616 388.192C463.396 387.521 464.142 386.818 464.853 386.084C464.9 386.036 464.943 385.986 464.989 385.939C468.713 382.046 471.465 377.329 473.009 372.172C473.04 372.066 473.068 371.957 473.099 371.85C473.275 371.239 473.435 370.622 473.578 370.001C473.624 369.8 473.667 369.598 473.709 369.397C473.822 368.857 473.922 368.313 474.009 367.765C474.046 367.528 474.085 367.291 474.119 367.053C474.194 366.508 474.25 365.96 474.299 365.41C474.32 365.185 474.346 364.962 474.362 364.736C474.414 363.969 474.446 363.199 474.446 362.423V362.417L474.44 324.562H37.579L37.581 335.992Z" fill="#259245"/>
<path d="M127.624 187.438H474.422L474.416 149.504C474.416 146.509 474.008 143.573 473.256 140.754C472.851 139.237 472.341 137.757 471.735 136.319C469.258 130.443 465.161 125.303 459.81 121.579C459.026 121.034 458.226 120.508 457.391 120.026L434.517 106.824L413.103 94.466L395.864 84.517L329.938 46.472L304.221 31.628L284.933 20.496L272.98 13.597C262.447 7.51904 249.471 7.52104 238.94 13.604L227.068 20.461L207.78 31.601L182.063 46.454L116.148 84.526L87.258 101.212L65.85 113.577L54.568 120.093C53.757 120.562 52.978 121.073 52.215 121.6C48.943 123.868 46.142 126.667 43.882 129.836C42.365 131.963 41.101 134.258 40.109 136.677C38.454 140.709 37.551 145.076 37.552 149.576L37.558 187.437H86.489H127.624V187.438Z" fill="#ED1F34"/>
<path d="M483.457 149.503C483.457 145.792 482.963 142.065 481.992 138.425C481.486 136.526 480.837 134.636 480.067 132.81C476.888 125.266 471.669 118.819 464.971 114.158C463.853 113.38 462.882 112.758 461.909 112.197L277.499 5.767C270.96 1.994 263.514 0 255.965 0C248.41 0 240.96 1.996 234.418 5.776L50.043 112.265C49.093 112.814 48.147 113.417 47.065 114.167C42.979 116.998 39.43 120.502 36.518 124.588C34.606 127.271 32.999 130.185 31.743 133.246C29.596 138.476 28.509 143.97 28.509 149.58L28.544 362.497C28.544 363.418 28.578 364.373 28.649 365.416C28.665 365.65 28.686 365.885 28.71 366.118L28.724 366.261C28.785 366.954 28.858 367.646 28.955 368.356C28.989 368.596 29.026 368.833 29.063 369.072L29.088 369.232C29.198 369.923 29.323 370.61 29.468 371.307C29.521 371.561 29.575 371.815 29.631 372.053C29.808 372.832 30.008 373.6 30.239 374.404L30.351 374.797C31.495 378.624 33.172 382.283 35.339 385.672C36.823 387.994 38.537 390.181 40.428 392.166C40.468 392.208 40.581 392.33 40.623 392.372C41.519 393.301 42.47 394.202 43.433 395.035L43.931 395.454C45.024 396.373 46.036 397.153 47.027 397.842C48.123 398.606 49.123 399.245 50.091 399.805L234.502 506.233C241.04 510.006 248.487 512.001 256.036 512.001C263.59 512.001 271.041 510.003 277.583 506.225L461.955 399.735C462.9 399.19 463.845 398.586 464.937 397.83C465.923 397.148 466.936 396.369 468.118 395.382C468.258 395.266 468.396 395.151 468.523 395.042C469.513 394.188 470.464 393.29 471.363 392.361L471.522 392.19C476.217 387.286 479.728 381.261 481.671 374.769L481.787 374.363C482.011 373.588 482.214 372.807 482.392 372.023L482.561 371.25C482.704 370.566 482.831 369.876 482.959 369.073C483.001 368.814 483.041 368.555 483.08 368.281C483.174 367.591 483.248 366.898 483.308 366.21L483.322 366.067C483.346 365.827 483.369 365.587 483.385 365.346C483.456 364.303 483.49 363.347 483.49 362.415L483.457 149.503ZM48.472 140.11C49.201 138.329 50.134 136.638 51.241 135.085C52.937 132.707 54.996 130.67 57.36 129.032C58.028 128.569 58.576 128.217 59.085 127.923L243.462 21.433C247.257 19.24 251.581 18.082 255.966 18.082C260.347 18.082 264.667 19.239 268.461 21.429L452.868 127.856C453.39 128.157 453.957 128.523 454.647 129.001C458.528 131.701 461.555 135.447 463.404 139.833C463.852 140.895 464.229 141.99 464.52 143.085C465.085 145.206 465.374 147.366 465.374 149.503L465.379 178.394H127.624C122.631 178.394 118.583 182.44 118.583 187.435C118.583 192.428 122.631 196.476 127.624 196.476H465.382L465.403 315.519H46.619L46.599 196.476H86.487C91.48 196.476 95.528 192.428 95.528 187.435C95.528 182.439 91.48 178.394 86.487 178.394H46.596L46.591 149.574C46.59 146.336 47.223 143.151 48.472 140.11ZM465.348 364.1L465.297 364.62C465.262 365.024 465.221 365.425 465.168 365.811L465.105 366.218C465.105 366.222 465.085 366.343 465.085 366.345C465.021 366.749 464.948 367.149 464.854 367.596L464.77 367.983C464.666 368.44 464.548 368.892 464.423 369.324L464.352 369.578C463.224 373.342 461.188 376.836 458.444 379.703L458.361 379.793C457.849 380.322 457.295 380.844 456.712 381.348L456.436 381.576C455.752 382.149 455.181 382.59 454.645 382.96C453.974 383.425 453.424 383.777 452.914 384.073L268.539 490.563C264.743 492.755 260.42 493.914 256.037 493.914C251.656 493.914 247.336 492.755 243.541 490.566L59.131 384.141C58.602 383.836 58.036 383.472 57.356 382.998C56.818 382.623 56.23 382.169 55.569 381.613L55.276 381.367C54.708 380.878 54.157 380.356 53.687 379.87C53.66 379.84 53.558 379.731 53.53 379.701C52.431 378.546 51.436 377.277 50.574 375.929C50.558 375.904 50.543 375.88 50.527 375.855C49.29 373.907 48.332 371.808 47.678 369.616L47.609 369.37C47.482 368.928 47.365 368.482 47.258 368.016L47.165 367.588C47.083 367.193 47.011 366.795 46.948 366.405L46.866 365.882C46.812 365.482 46.77 365.079 46.736 364.679L46.688 364.186C46.649 363.625 46.624 363.061 46.624 362.487L46.619 333.604H465.402L465.407 362.421C465.41 362.993 465.384 363.561 465.348 364.1Z" fill="black"/>
</svg>
